<svg height="64" viewBox="0 0 64 64" width="64" xmlns="http://www.w3.org/2000/svg"><g fill-rule="evenodd" transform="matrix(1.8869173 0 0 1.8869173 -1.334639 -50.095944)"><path d="m17.666194 59.1298 6.245155-19.220566h-12.49031z" fill="#e24329"/><path d="m17.666194 59.129763-6.245155-19.220474h-8.7524724z" fill="#fc6d26"/><path d="m2.6685666 39.909262-1.89788876 5.84095c-.17308628.532757.0165281 1.116384.46976626 1.445569l16.4257499 11.933955z" fill="#fca326"/><path d="m2.6685666 39.90928h8.7524724l-3.7614354-11.576396c-.1935628-.595655-1.0362221-.595655-1.2296931 0z" fill="#e24329"/><path d="m17.666194 59.129763 6.245155-19.220474h8.752473z" fill="#fc6d26"/><path d="m32.663813 39.909262 1.897889 5.84095c.173086.532757-.01653 1.116384-.469767 1.445569l-16.42575 11.933955z" fill="#fca326"/><path d="m32.663813 39.90928h-8.752473l3.761436-11.576396c.193563-.595655 1.036222-.595655 1.229693 0z" fill="#e24329"/></g></svg>